<mxfile host="app.diagrams.net" modified="2021-09-12T03:18:54.640Z" agent="5.0 (Macintosh; Intel Mac OS X 10_15_7) AppleWebKit/537.36 (KHTML, like Gecko) Chrome/93.0.4577.63 Safari/537.36" etag="rvd4aoRa9bJYZtBHF6pn" version="15.1.4" type="github">
  <diagram id="C5RBs43oDa-KdzZeNtuy" name="Page-1">
    <mxGraphModel dx="1298" dy="834" grid="1" gridSize="10" guides="1" tooltips="1" connect="1" arrows="1" fold="1" page="1" pageScale="1" pageWidth="827" pageHeight="1169" math="0" shadow="0">
      <root>
        <mxCell id="WIyWlLk6GJQsqaUBKTNV-0" />
        <mxCell id="WIyWlLk6GJQsqaUBKTNV-1" parent="WIyWlLk6GJQsqaUBKTNV-0" />
        <mxCell id="CN6VlHryC-8SpS2NUB5w-13" value="" style="rounded=1;whiteSpace=wrap;html=1;strokeWidth=2;fillWeight=4;hachureGap=8;hachureAngle=45;fillColor=#1ba1e2;sketch=1;fontFamily=Comic Sans MS;shadow=0;" vertex="1" parent="WIyWlLk6GJQsqaUBKTNV-1">
          <mxGeometry x="280" y="210" width="210" height="170" as="geometry" />
        </mxCell>
        <mxCell id="CN6VlHryC-8SpS2NUB5w-14" value="" style="shape=ext;double=1;rounded=0;whiteSpace=wrap;html=1;shadow=0;sketch=1;fontFamily=Comic Sans MS;gradientColor=#ffffff;gradientDirection=east;" vertex="1" parent="WIyWlLk6GJQsqaUBKTNV-1">
          <mxGeometry x="120" y="110" width="120" height="80" as="geometry" />
        </mxCell>
      </root>
    </mxGraphModel>
  </diagram>
</mxfile>
